# xmcd CD database file
#
# Track frame offsets:
#	150
#	18630
#	39085
#	61137
#	84940
#	106632
#	125920
#	155405
#	180555
#	201877
#	221052
#	232922
#	252712
#	284390
#	299070
#
# Disc length: 4244 seconds
#
# Revision: 0
# Processed by: cddbd v1.5.2PL0 Copyright (c) Steve Scherf et al.
# Submitted via: CDex 1.51
#
DISCID=d810920f
DTITLE=High Sierra Jazz Band - Live From Three Rivers
DYEAR=1900
DGENRE=Jazz
TTITLE0=Candy Lips
TTITLE1=Clementine From New Orleans
TTITLE2=Once In A While
TTITLE3=Delta Bound
TTITLE4=Algiers Strut
TTITLE5=Chimes Blues
TTITLE6=Someday Sweetheart
TTITLE7=Just A Little While To Stay Here
TTITLE8=I'm Coming, Virginia
TTITLE9=Is It True What They Say About Dixie
TTITLE10=Three Rivers Joys
TTITLE11=Creole Belles
TTITLE12=Uptown Bumps
TTITLE13=Wildcat Blues
TTITLE14=Shine
EXTD=
EXTT0=
EXTT1=
EXTT2=
EXTT3=
EXTT4=
EXTT5=
EXTT6=
EXTT7=
EXTT8=
EXTT9=
EXTT10=
EXTT11=
EXTT12=
EXTT13=
EXTT14=
PLAYORDER=
